# xmcd CD database file
#
# Track frame offsets:
#	150
#	12591
#	26085
#	36024
#	45580
#	55229
#	66755
#	79585
#	93778
#	106334
#	120049
#	131469
#	146203
#	157827
#	167899
#	181618
#	194325
#	209571
#
# Disc length: 2990 seconds
#
# Revision: 0
# Processed by: cddbd v1.5.2PL0 Copyright (c) Steve Scherf et al.
# Submitted via: CDex 1.51
#
DISCID=e80bac12
DTITLE=Peggy Lee - The Discovery of Jazz [CD2]
DYEAR=1900
DGENRE=Jazz
TTITLE0=Caramba! It's the samba
TTITLE1=Golden earrings
TTITLE2=Fine and dandy
TTITLE3=As long as I'm dreaming
TTITLE4=Aren't you glad you're you
TTITLE5=I can't give you anything but love
TTITLE6=Forgive me
TTITLE7=Crazy he calls me
TTITLE8=For every man there's a woman
TTITLE9=Chi-baba, chi-baba (my bambino go to sleep)
TTITLE10=All dressed up with a broken heart
TTITLE11=How long has this been going on
TTITLE12=But beautiful
TTITLE13=I ain't got nobody
TTITLE14=Ain't goin' no place
TTITLE15=Bye bye blues
TTITLE16=All I need is you
TTITLE17=Full moon
EXTD=
EXTT0=
EXTT1=
EXTT2=
EXTT3=
EXTT4=
EXTT5=
EXTT6=
EXTT7=
EXTT8=
EXTT9=
EXTT10=
EXTT11=
EXTT12=
EXTT13=
EXTT14=
EXTT15=
EXTT16=
EXTT17=
PLAYORDER=
